# xmcd
# 
# Track frame offsets:
#     150
#     5950
#     18185
#     36472
#     49960
#     63407
#     74880
#     92062
#     103020
#     116990
#     128457
#     148847
#     160757
#     174197
# 
# Disc length: 2543
# 
# Revision: 2
# Processed by: cddbd v1.5.2PL0 Copyright (c) Steve Scherf et al.
# Submitted via: fre:ac v1.0.17
# 
DISCID=cb09ed0e
DTITLE=Canários do Reino - No Arrasta-Pé
DYEAR=0
DGENRE=Forró
TTITLE0=Abertura
TTITLE1=Rancheira
TTITLE2=Pout-Pourri (Bailão Dourado, Pula-Fogueira e Pé-de-Moleque)
TTITLE3=No Lumi da Fogueira
TTITLE4=Casamento na Fogueira
TTITLE5=Crina Negra
TTITLE6=Pout-Pourri (Fogo Sem Fuzil, Riacho do Navio e Forro no Escuro)
TTITLE7=Festa Boa
TTITLE8=Pout-Pourri (Pra Tirar Coco, A Noivinha e Olha o Tamanho da Bichona)
TTITLE9=23 de Junho
TTITLE10=Pout-Pourri (Aproveita Gente, Olha Pro Céu e São Jõa na Roça)
TTITLE11=Terreiro da Fazenda
TTITLE12=Quero Ver
TTITLE13=Homenagem Às Quadrilhas do Brasil (Instrumental)
EXTD=
EXTT0=
EXTT1=
EXTT2=
EXTT3=
EXTT4=
EXTT5=
EXTT6=
EXTT7=
EXTT8=
EXTT9=
EXTT10=
EXTT11=
EXTT12=
EXTT13=
PLAYORDER=
